<svg version="1.2" xmlns="http://www.w3.org/2000/svg" viewBox="0 0 512 512" width="512" height="512">
	<style>
		.s0 { fill: #95b477;stroke: #000000;stroke-linecap: round;stroke-miterlimit:10;stroke-width: 0 } 
		.s1 { fill: #ffffff;stroke: #000000;stroke-linecap: round;stroke-miterlimit:10;stroke-width: 5 } 
		.s2 { fill: #3da6cd } 
		.s3 { fill: #ffffff } 
		.s4 { fill: #6e2525 } 
		.s5 { fill: #68c3b1 } 
		.s6 { fill: #68c3b1;stroke: #000000;stroke-linecap: round;stroke-miterlimit:10;stroke-width: 5 } 
		.s7 { fill: #ffffff;stroke: #000000;stroke-miterlimit:10 } 
	</style>
	<g id="Layer 1">
		<path id="Shape 10" fill-rule="evenodd" class="s0" d="m550-68.89v647.24h-592.15v-647.24z"/>
		<path id="Shape 1" fill-rule="evenodd" class="s1" d="m122.86 91.54l126.47 167.34 4.01 132.28 23.58-31.62-0.36-101.62 112.2-169.16"/>
		<path id="Shape 7" fill-rule="evenodd" class="s2" d="m266.27 359.26c-8.22-7.38 0.57-25.42-4.25-33.47-4.46-7.43-0.1-17.96-2.84-28.92-3.18-12.76-1.87-17.57-2.84-26.21-1.98-17.74-1.16-16.6 5.91-16.89 5.68-0.23 9.13-0.29 8.98 15.04-0.13 12.71-0.56 30.81-0.62 44.52-0.12 26.53 5.82 55.04-4.34 45.93z"/>
		<path id="Shape 8" fill-rule="evenodd" class="s3" d="m268.01 300.54c-0.94 0-0.49-4.21-1.24-7.54-0.57-2.53-2.48-3.93-2.48-6.19 0-2.44 1.11-4.52 1.58-6.2 0.55-1.94 0.24-4.61 1.13-4.61 1.66 0 3 4.25 3 9.5 0 5.25-0.33 15.04-1.99 15.04z"/>
		<path id="Shape 5" fill-rule="evenodd" class="s4" d="m251.12 257.88l-38.93-52.16 97.87-2.5-36.43 54.66"/>
		<path id="Shape 5 copy" fill-rule="evenodd" class="s5" d="m199.68 188.93l-44.29-58.22c-0.56 0 206.63-4.65 206.83-4.65l-40.73 59.66"/>
		<path id="Shape 4 copy 2" fill-rule="evenodd" class="s6" d="m259.4 141.83c-10.01-0.09-74.86-0.52-105.9-14.08-14.22-6.21 43.21-17.76 104.71-17.7 61.51 0.06 116.56 9.14 103.83 14.66-40.92 17.76-96.63 17.17-102.64 17.12z"/>
		<path id="Shape 4 copy 3" fill-rule="evenodd" class="s6" d="m327.39 180.59c-26.65 11.56-62.93 11.18-66.84 11.15-6.52-0.06-44.3 1.12-65.77-5.35"/>
		<path id="Shape 4 copy 4" fill-rule="evenodd" class="s1" d="m313.57 200.46c-20.95 9.09-49.46 8.79-52.54 8.76-5.12-0.05-34.82 0.88-51.69-4.2"/>
		<path id="Shape 4 copy 5" fill-rule="evenodd" class="s6" d="m327.39 180.59c-26.65 11.56-62.93 11.18-66.84 11.15-6.52-0.06-44.3 1.12-65.77-5.35"/>
		<path id="Shape 4 copy 6" fill-rule="evenodd" class="s1" d="m276.71 257.65c-5.42 2.35-12.8 2.27-13.59 2.27-1.33-0.02-9.01 0.22-13.38-1.09"/>
		<path id="Shape 2" fill-rule="evenodd" class="s7" d="m333.99 166.11"/>
		<path id="Shape 3" fill-rule="evenodd" class="s1" d="m122.57 96.66"/>
		<path id="Shape 4" fill-rule="evenodd" class="s1" d="m257.75 100.14c-13.19-0.11-92.44-0.14-132.69-7.62-20.07-3.73 50.91-27.52 131.95-27.52 81.03 0 148.5 18.55 130.88 23.36-44.36 12.09-122.21 11.84-130.14 11.78z"/>
		<path id="Shape 6" fill-rule="evenodd" class="s2" d="m276.29 461.56c-10.27 0-18.57-8.4-18.57-18.8 0-10.39 4.49-20.14 10.28-21.12 12.91-2.18 8.25-12.71 5.56-20.51-2.87-8.33 16.5 3.81 22.78 15.61 4.88 9.17-1.48 22.18-1.48 26.02 0 10.4-8.3 18.8-18.57 18.8z"/>
		<path id="Shape 9" fill-rule="evenodd" class="s3" d="m283.12 454.89c-2.21 0 1.23-2.03 2.24-5.47 0.54-1.85 1.03-1.64 0.85-2.93-0.24-1.62-0.41-1.97-0.31-3.39 0.09-1.4 1.21-2.7 1.85-2.7 2.21 0 0.23 4.38 0.23 8.25 0 3.87-2.64 6.24-4.86 6.24z"/>
	</g>
</svg>
